<svg xmlns="http://www.w3.org/2000/svg" viewBox="189 399 889 420" role="img" aria-labelledby="lt ld">
  <title id="lt">cook</title>
  <desc id="ld">The cook logo: a line-art flame with cook's fan-out dependency graph traced inside it, beside the lowercase wordmark cook.</desc>
  <defs>
    <linearGradient id="e" x1="1" y1="0" x2="0.12" y2="1">
      <stop offset="0%" stop-color="#f4772c"/>
      <stop offset="52%" stop-color="#ea5620"/>
      <stop offset="100%" stop-color="#d8400f"/>
    </linearGradient>
  </defs>
  <g transform="translate(0.000000,1254.000000) scale(0.100000,-0.100000)" fill="url(#e)">
<path d="M3742 8295 c-166 -64 -324 -168 -445 -292 -82 -84 -123 -140 -175
-241 -89 -171 -119 -330 -106 -551 4 -80 8 -172 7 -205 -4 -106 -53 -214 -125
-270 l-33 -26 -7 33 c-4 17 -11 109 -14 202 -7 189 -13 205 -70 205 -28 0 -49
-16 -150 -112 -213 -206 -335 -388 -418 -627 -59 -169 -78 -283 -79 -461 -1
-173 14 -273 64 -430 67 -211 172 -384 333 -546 168 -168 340 -275 550 -340
81 -25 92 -26 115 -13 l26 15 3 296 2 297 -144 158 c-123 134 -145 163 -146
190 0 26 6 36 28 47 47 24 100 91 117 148 43 145 -70 291 -224 291 -141 0
-248 -126 -227 -268 9 -60 61 -134 114 -163 39 -22 42 -26 42 -67 0 -24 4 -54
9 -67 5 -13 70 -90 145 -173 l135 -150 1 -187 c0 -151 -3 -188 -13 -188 -24 0
-201 95 -271 145 -233 166 -400 408 -471 682 -109 418 2 854 302 1191 36 39
68 72 72 72 4 0 8 -19 9 -42 4 -79 23 -283 28 -299 2 -9 18 -23 35 -29 28 -12
37 -10 115 30 139 70 234 179 277 315 19 61 21 86 17 195 -8 253 -3 370 19
455 44 164 128 303 254 421 59 55 205 157 214 150 1 -1 -5 -40 -13 -86 -10
-58 -13 -112 -9 -170 20 -274 155 -507 435 -753 297 -261 421 -417 515 -650
206 -504 68 -1086 -336 -1422 -111 -93 -245 -172 -336 -200 l-23 -6 0 186 0
187 133 146 c74 81 139 157 145 169 7 12 12 44 12 72 0 48 2 52 33 64 38 16
94 77 113 123 33 79 10 188 -53 251 -145 146 -393 41 -393 -166 0 -79 54 -172
121 -207 23 -11 29 -21 29 -47 0 -27 -22 -56 -145 -190 l-145 -159 0 -293 c0
-292 0 -294 22 -309 30 -21 42 -20 134 10 333 108 619 352 778 664 68 133 120
286 142 419 13 82 15 140 11 275 -7 195 -23 283 -85 448 -85 224 -226 428
-418 604 -206 187 -360 347 -412 427 -150 229 -169 488 -53 715 28 55 27 86
-5 111 -33 26 -34 26 -112 -4z m-836 -2399 c37 -31 38 -84 4 -121 -51 -54
-140 -16 -140 60 0 74 80 110 136 61z m1260 0 c58 -49 20 -146 -56 -146 -45 0
-84 40 -83 84 2 77 81 112 139 62z"/>
<path d="M3418 6706 c-61 -17 -111 -56 -145 -114 -37 -62 -39 -165 -6 -228 24
-44 79 -98 112 -109 21 -6 21 -8 22 -738 0 -403 0 -769 0 -814 0 -102 9 -113
84 -113 43 0 56 4 65 19 7 13 10 290 10 830 l0 810 21 6 c35 11 101 77 120
120 22 48 25 142 5 189 -46 109 -175 173 -288 142z m130 -172 c34 -39 30 -95
-9 -128 -41 -35 -83 -34 -120 3 -48 49 -37 120 24 147 41 17 76 10 105 -22z"/>
  </g>
  <g transform="translate(0.000000,1254.000000) scale(0.100000,-0.100000)" fill="#f4ede0">
<path d="M9555 6968 c-3 -7 -4 -389 -3 -848 l3 -835 81 -3 c59 -2 84 1 92 11
8 9 13 92 14 251 l3 238 269 -251 270 -252 120 3 c156 4 159 11 45 116 -334
309 -554 518 -554 526 0 5 142 126 315 268 245 201 315 263 315 280 0 22 -3
23 -119 26 -100 2 -122 0 -145 -15 -15 -10 -134 -106 -265 -213 -131 -107
-242 -196 -247 -198 -5 -2 -10 184 -11 450 l-3 453 -88 3 c-64 2 -89 -1 -92
-10z"/>
<path d="M5810 6495 c-99 -22 -219 -87 -293 -159 -247 -241 -258 -638 -25
-883 129 -135 265 -195 448 -197 124 -1 187 13 295 64 92 44 186 124 239 204
51 77 48 88 -27 131 -35 19 -71 35 -79 35 -8 0 -32 -26 -54 -57 -51 -75 -138
-138 -226 -164 -104 -32 -232 -25 -319 18 -119 59 -192 143 -230 264 -51 163
5 357 134 463 197 161 490 123 642 -84 20 -27 44 -50 53 -50 10 0 45 14 79 32
46 24 63 38 63 54 0 53 -139 203 -241 262 -128 72 -314 100 -459 67z"/>
<path d="M7135 6494 c-109 -26 -202 -81 -290 -169 -92 -91 -136 -165 -165
-281 -76 -297 61 -594 335 -725 95 -46 157 -59 279 -59 174 0 315 58 436 180
81 81 126 155 158 260 105 344 -96 701 -444 790 -91 24 -221 25 -309 4z m236
-188 c208 -44 349 -215 349 -423 0 -127 -44 -228 -139 -316 -135 -126 -334
-152 -502 -67 -109 56 -199 183 -222 314 -38 225 127 458 353 495 78 12 87 12
161 -3z"/>
<path d="M8552 6490 c-219 -58 -390 -230 -447 -450 -64 -247 42 -531 251 -673
109 -74 188 -99 324 -104 199 -8 350 48 480 177 118 119 180 270 180 442 0
113 -13 174 -61 277 -32 68 -54 98 -121 165 -51 50 -107 94 -145 114 -134 70
-313 91 -461 52z m251 -185 c138 -29 243 -111 303 -239 79 -166 50 -347 -77
-481 -233 -246 -648 -139 -735 190 -54 200 48 413 238 500 98 45 166 52 271
30z"/>
  </g>
</svg>
