<svg xmlns="http://www.w3.org/2000/svg" viewBox="189 399 317 419" role="img" aria-labelledby="lt ld">
  <title id="lt">cook</title>
  <desc id="ld">A line-art flame with cook's fan-out dependency graph traced inside it.</desc>
  <defs>
    <linearGradient id="e" x1="1" y1="0" x2="0.12" y2="1">
      <stop offset="0%" stop-color="#f4772c"/>
      <stop offset="52%" stop-color="#ea5620"/>
      <stop offset="100%" stop-color="#d8400f"/>
    </linearGradient>
  </defs>
  <g transform="translate(0.000000,1254.000000) scale(0.100000,-0.100000)" fill="url(#e)">
<path d="M3742 8295 c-166 -64 -324 -168 -445 -292 -82 -84 -123 -140 -175
-241 -89 -171 -119 -330 -106 -551 4 -80 8 -172 7 -205 -4 -106 -53 -214 -125
-270 l-33 -26 -7 33 c-4 17 -11 109 -14 202 -7 189 -13 205 -70 205 -28 0 -49
-16 -150 -112 -213 -206 -335 -388 -418 -627 -59 -169 -78 -283 -79 -461 -1
-173 14 -273 64 -430 67 -211 172 -384 333 -546 168 -168 340 -275 550 -340
81 -25 92 -26 115 -13 l26 15 3 296 2 297 -144 158 c-123 134 -145 163 -146
190 0 26 6 36 28 47 47 24 100 91 117 148 43 145 -70 291 -224 291 -141 0
-248 -126 -227 -268 9 -60 61 -134 114 -163 39 -22 42 -26 42 -67 0 -24 4 -54
9 -67 5 -13 70 -90 145 -173 l135 -150 1 -187 c0 -151 -3 -188 -13 -188 -24 0
-201 95 -271 145 -233 166 -400 408 -471 682 -109 418 2 854 302 1191 36 39
68 72 72 72 4 0 8 -19 9 -42 4 -79 23 -283 28 -299 2 -9 18 -23 35 -29 28 -12
37 -10 115 30 139 70 234 179 277 315 19 61 21 86 17 195 -8 253 -3 370 19
455 44 164 128 303 254 421 59 55 205 157 214 150 1 -1 -5 -40 -13 -86 -10
-58 -13 -112 -9 -170 20 -274 155 -507 435 -753 297 -261 421 -417 515 -650
206 -504 68 -1086 -336 -1422 -111 -93 -245 -172 -336 -200 l-23 -6 0 186 0
187 133 146 c74 81 139 157 145 169 7 12 12 44 12 72 0 48 2 52 33 64 38 16
94 77 113 123 33 79 10 188 -53 251 -145 146 -393 41 -393 -166 0 -79 54 -172
121 -207 23 -11 29 -21 29 -47 0 -27 -22 -56 -145 -190 l-145 -159 0 -293 c0
-292 0 -294 22 -309 30 -21 42 -20 134 10 333 108 619 352 778 664 68 133 120
286 142 419 13 82 15 140 11 275 -7 195 -23 283 -85 448 -85 224 -226 428
-418 604 -206 187 -360 347 -412 427 -150 229 -169 488 -53 715 28 55 27 86
-5 111 -33 26 -34 26 -112 -4z m-836 -2399 c37 -31 38 -84 4 -121 -51 -54
-140 -16 -140 60 0 74 80 110 136 61z m1260 0 c58 -49 20 -146 -56 -146 -45 0
-84 40 -83 84 2 77 81 112 139 62z"/>
<path d="M3418 6706 c-61 -17 -111 -56 -145 -114 -37 -62 -39 -165 -6 -228 24
-44 79 -98 112 -109 21 -6 21 -8 22 -738 0 -403 0 -769 0 -814 0 -102 9 -113
84 -113 43 0 56 4 65 19 7 13 10 290 10 830 l0 810 21 6 c35 11 101 77 120
120 22 48 25 142 5 189 -46 109 -175 173 -288 142z m130 -172 c34 -39 30 -95
-9 -128 -41 -35 -83 -34 -120 3 -48 49 -37 120 24 147 41 17 76 10 105 -22z"/>
  </g>
</svg>
